<svg width="90" height="90" viewBox="0 0 90 90" fill="none" xmlns="http://www.w3.org/2000/svg">
<g filter="url(#filter0_d)">
<rect x="20" y="10" width="50" height="50" rx="15" fill="#FAF3D8"/>
</g>
<path fill-rule="evenodd" clip-rule="evenodd" d="M49.8515 30.6048C49.8515 33.3461 47.6661 35.5442 44.9406 35.5442C42.2152 35.5442 40.0298 33.3461 40.0298 30.6048C40.0298 27.8625 42.2152 25.6665 44.9406 25.6665C47.6661 25.6665 49.8515 27.8625 49.8515 30.6048ZM44.9406 44.3332C40.9375 44.3332 37.5195 43.6985 37.5195 41.16C37.5195 38.6205 40.9156 37.9627 44.9406 37.9627C48.9436 37.9627 52.3617 38.5973 52.3617 41.1369C52.3617 43.6754 48.9656 44.3332 44.9406 44.3332ZM51.9501 30.694C51.9501 32.0914 51.5332 33.3932 50.802 34.4755C50.7268 34.5868 50.7936 34.7371 50.9263 34.7602C51.1091 34.7917 51.2982 34.8096 51.4904 34.8148C53.4073 34.8653 55.1278 33.6244 55.6031 31.7562C56.3072 28.9813 54.2399 26.4901 51.6074 26.4901C51.3212 26.4901 51.0475 26.5205 50.7811 26.5752C50.7445 26.5836 50.7059 26.6004 50.685 26.633C50.6599 26.6729 50.6787 26.7265 50.7038 26.7612C51.4946 27.876 51.9501 29.2356 51.9501 30.694ZM55.1247 36.7645C56.4127 37.0177 57.2599 37.5347 57.6109 38.2859C57.9076 38.9027 57.9076 39.6182 57.6109 40.2339C57.074 41.3992 55.343 41.7732 54.6703 41.8699C54.5313 41.8909 54.4196 41.7701 54.4342 41.6303C54.7779 38.4015 52.0441 36.8706 51.3368 36.5186C51.3065 36.5029 51.3003 36.4787 51.3034 36.464C51.3055 36.4535 51.318 36.4367 51.341 36.4335C52.8714 36.4051 54.5167 36.6153 55.1247 36.7645ZM38.5101 34.8147C38.7023 34.8094 38.8903 34.7926 39.0742 34.76C39.2068 34.7369 39.2737 34.5867 39.1985 34.4753C38.4672 33.3931 38.0504 32.0912 38.0504 30.6938C38.0504 29.2354 38.5059 27.8758 39.2967 26.761C39.3217 26.7263 39.3395 26.6727 39.3155 26.6328C39.2946 26.6013 39.2549 26.5834 39.2194 26.575C38.9519 26.5204 38.6782 26.4899 38.392 26.4899C35.7595 26.4899 33.6922 28.9811 34.3973 31.7561C34.8726 33.6242 36.5931 34.8651 38.5101 34.8147ZM38.6965 36.4634C38.6996 36.4791 38.6934 36.5023 38.6641 36.5191C37.9559 36.871 35.222 38.4019 35.5657 41.6297C35.5804 41.7705 35.4696 41.8903 35.3307 41.8703C34.6579 41.7737 32.927 41.3996 32.39 40.2344C32.0923 39.6176 32.0923 38.9031 32.39 38.2864C32.741 37.5351 33.5872 37.0181 34.8752 36.7639C35.4843 36.6157 37.1285 36.4056 38.6599 36.434C38.6829 36.4371 38.6944 36.4539 38.6965 36.4634Z" fill="#FFCF00"/>
<defs>
<filter id="filter0_d" x="0" y="0" width="90" height="90" filterUnits="userSpaceOnUse" color-interpolation-filters="sRGB">
<feFlood flood-opacity="0" result="BackgroundImageFix"/>
<feColorMatrix in="SourceAlpha" type="matrix" values="0 0 0 0 0 0 0 0 0 0 0 0 0 0 0 0 0 0 127 0"/>
<feOffset dy="10"/>
<feGaussianBlur stdDeviation="10"/>
<feColorMatrix type="matrix" values="0 0 0 0 0.745833 0 0 0 0 0.649564 0 0 0 0 0.450608 0 0 0 0.05 0"/>
<feBlend mode="normal" in2="BackgroundImageFix" result="effect1_dropShadow"/>
<feBlend mode="normal" in="SourceGraphic" in2="effect1_dropShadow" result="shape"/>
</filter>
</defs>
</svg>
