<svg width="90" height="90" viewBox="0 0 90 90" fill="none" xmlns="http://www.w3.org/2000/svg">
<g filter="url(#filter0_d)">
<rect x="19.9995" y="10.001" width="50" height="50" rx="15" fill="#E7F2EF"/>
</g>
<path fill-rule="evenodd" clip-rule="evenodd" d="M54.799 31.6703L55.6393 32.5103C56.3045 33.1636 56.6663 34.0503 56.6663 34.9836C56.678 35.9169 56.3162 36.8048 55.6626 37.4686C55.6548 37.4771 55.6471 37.4847 55.6393 37.4922C55.6354 37.4959 55.6315 37.4997 55.6276 37.5036L54.799 38.3319C54.4722 38.6586 54.2854 39.1019 54.2854 39.5698V40.7703C54.2854 42.7069 52.7099 44.2831 50.7725 44.2831H49.5704C49.1036 44.2831 48.6601 44.4686 48.3333 44.7953L47.493 45.6353C46.8044 46.3248 45.9057 46.6619 45.0071 46.6619C44.1084 46.6619 43.2098 46.3248 42.5212 45.6481L41.6692 44.7953C41.3424 44.4686 40.8989 44.2831 40.4321 44.2831H39.23C37.2926 44.2831 35.7171 42.7069 35.7171 40.7703V39.5698C35.7171 39.1019 35.5303 38.6586 35.2035 38.3203L34.3632 37.4919C32.9977 36.1281 32.9861 33.8986 34.3516 32.5231L35.2035 31.6703C35.5303 31.3436 35.7171 30.9003 35.7171 30.4219V29.2319C35.7171 27.2953 37.2926 25.7214 39.23 25.7214H40.4321C40.8989 25.7214 41.3424 25.5336 41.6692 25.2069L42.5095 24.3669C43.875 22.9914 46.1041 22.9914 47.4813 24.3564L48.3333 25.2069C48.6601 25.5336 49.1036 25.7214 49.5704 25.7214H50.7725C52.7099 25.7214 54.2854 27.2953 54.2854 29.2319V30.4348C54.2854 30.9003 54.4722 31.3436 54.799 31.6703ZM41.996 39.0203C42.2761 39.0203 42.5329 38.9153 42.7196 38.7169L48.7185 32.7214C49.1153 32.3248 49.1153 31.6703 48.7185 31.2736C48.3216 30.8781 47.6797 30.8781 47.2829 31.2736L41.2841 37.2703C40.8873 37.6669 40.8873 38.3203 41.2841 38.7169C41.4708 38.9153 41.7276 39.0203 41.996 39.0203ZM46.9795 37.9936C46.9795 38.5652 47.4346 39.0202 48.0065 39.0202C48.5667 39.0202 49.0219 38.5652 49.0219 37.9936C49.0219 37.4347 48.5667 36.9786 48.0065 36.9786C47.4346 36.9786 46.9795 37.4347 46.9795 37.9936ZM42.0076 30.9819C42.5678 30.9819 43.023 31.4369 43.023 31.9969C43.023 32.5697 42.5678 33.0236 42.0076 33.0236C41.4474 33.0236 40.9806 32.5697 40.9806 31.9969C40.9806 31.4369 41.4474 30.9819 42.0076 30.9819Z" fill="#51A690"/>
<defs>
<filter id="filter0_d" x="-0.000488281" y="0.000976562" width="90" height="90" filterUnits="userSpaceOnUse" color-interpolation-filters="sRGB">
<feFlood flood-opacity="0" result="BackgroundImageFix"/>
<feColorMatrix in="SourceAlpha" type="matrix" values="0 0 0 0 0 0 0 0 0 0 0 0 0 0 0 0 0 0 127 0"/>
<feOffset dy="10"/>
<feGaussianBlur stdDeviation="10"/>
<feColorMatrix type="matrix" values="0 0 0 0 0.0235294 0 0 0 0 0.301961 0 0 0 0 0.227451 0 0 0 0.03 0"/>
<feBlend mode="normal" in2="BackgroundImageFix" result="effect1_dropShadow"/>
<feBlend mode="normal" in="SourceGraphic" in2="effect1_dropShadow" result="shape"/>
</filter>
</defs>
</svg>
