<svg width="90" height="90" viewBox="0 0 90 90" fill="none" xmlns="http://www.w3.org/2000/svg">
<g filter="url(#filter0_d)">
<rect x="20" y="10" width="50" height="50" rx="15" fill="#FFE7DB"/>
</g>
<path fill-rule="evenodd" clip-rule="evenodd" d="M39.5522 23.334H50.4477C54.4155 23.334 56.6555 25.5845 56.6672 29.5523V40.449C56.6672 44.4157 54.4155 46.6673 50.4477 46.6673H39.5522C35.5844 46.6673 33.3339 44.4157 33.3339 40.449V29.5523C33.3339 25.5845 35.5844 23.334 39.5522 23.334ZM45.0577 41.8373C45.5605 41.8373 45.9793 41.464 46.026 40.9623V29.074C46.0727 28.7123 45.8988 28.3495 45.5838 28.1523C45.256 27.954 44.8593 27.954 44.5455 28.1523C44.2293 28.3495 44.0555 28.7123 44.0893 29.074V40.9623C44.1488 41.464 44.5677 41.8373 45.0577 41.8373ZM50.4255 41.8373C50.9155 41.8373 51.3343 41.464 51.3938 40.9623V37.1357C51.4277 36.7612 51.2538 36.4123 50.9377 36.214C50.6238 36.0157 50.2272 36.0157 49.9005 36.214C49.5843 36.4123 49.4105 36.7612 49.4572 37.1357V40.9623C49.5038 41.464 49.9227 41.8373 50.4255 41.8373ZM40.5894 40.9624C40.5427 41.464 40.1239 41.8374 39.621 41.8374C39.1194 41.8374 38.6994 41.464 38.6539 40.9624V32.9007C38.6189 32.5379 38.7927 32.1774 39.1089 31.979C39.4227 31.7807 39.8205 31.7807 40.1355 31.979C40.4494 32.1774 40.6255 32.5379 40.5894 32.9007V40.9624Z" fill="#FEAD86"/>
<defs>
<filter id="filter0_d" x="0" y="0" width="90" height="90" filterUnits="userSpaceOnUse" color-interpolation-filters="sRGB">
<feFlood flood-opacity="0" result="BackgroundImageFix"/>
<feColorMatrix in="SourceAlpha" type="matrix" values="0 0 0 0 0 0 0 0 0 0 0 0 0 0 0 0 0 0 127 0"/>
<feOffset dy="10"/>
<feGaussianBlur stdDeviation="10"/>
<feColorMatrix type="matrix" values="0 0 0 0 0.770833 0 0 0 0 0.619075 0 0 0 0 0.56849 0 0 0 0.1 0"/>
<feBlend mode="normal" in2="BackgroundImageFix" result="effect1_dropShadow"/>
<feBlend mode="normal" in="SourceGraphic" in2="effect1_dropShadow" result="shape"/>
</filter>
</defs>
</svg>
