<svg width="90" height="90" viewBox="0 0 90 90" fill="none" xmlns="http://www.w3.org/2000/svg">
<g clip-path="url(#clip0)">
<g filter="url(#filter0_d)">
<path d="M75 0H15C6.71573 0 0 6.71573 0 15V75C0 83.2843 6.71573 90 15 90H75C83.2843 90 90 83.2843 90 75V15C90 6.71573 83.2843 0 75 0Z" fill="#DAE6FF"/>
<path fill-rule="evenodd" clip-rule="evenodd" d="M27.0002 42.6059C27.0002 33.987 33.9129 27 42.44 27C46.5349 27 50.462 28.6442 53.3575 31.5709C56.2531 34.4975 57.8797 38.4669 57.8797 42.6059C57.8797 51.2247 50.9671 58.2117 42.44 58.2117C33.9129 58.2117 27.0002 51.2247 27.0002 42.6059ZM57.6243 55.1776L62.2227 58.8894H62.3025C63.2328 59.8297 63.2328 61.3543 62.3025 62.2946C61.3722 63.2349 59.8639 63.2349 58.9335 62.2946L55.1175 57.9211C54.7568 57.5577 54.554 57.0641 54.554 56.5493C54.554 56.0345 54.7568 55.5409 55.1175 55.1776C55.8133 54.4865 56.9285 54.4865 57.6243 55.1776Z" fill="#6E9CFD"/>
</g>
</g>
<defs>
<filter id="filter0_d" x="-20" y="-10" width="130" height="130" filterUnits="userSpaceOnUse" color-interpolation-filters="sRGB">
<feFlood flood-opacity="0" result="BackgroundImageFix"/>
<feColorMatrix in="SourceAlpha" type="matrix" values="0 0 0 0 0 0 0 0 0 0 0 0 0 0 0 0 0 0 127 0"/>
<feOffset dy="10"/>
<feGaussianBlur stdDeviation="10"/>
<feColorMatrix type="matrix" values="0 0 0 0 0.770833 0 0 0 0 0.619075 0 0 0 0 0.56849 0 0 0 0.1 0"/>
<feBlend mode="normal" in2="BackgroundImageFix" result="effect1_dropShadow"/>
<feBlend mode="normal" in="SourceGraphic" in2="effect1_dropShadow" result="shape"/>
</filter>
<clipPath id="clip0">
<rect width="90" height="90" fill="white"/>
</clipPath>
</defs>
</svg>
