<svg width="90" height="90" viewBox="0 0 90 90" fill="none" xmlns="http://www.w3.org/2000/svg">
<g clip-path="url(#clip0)">
<g filter="url(#filter0_d)">
<path d="M63 0H27C12.0883 0 0 12.0883 0 27V63C0 77.9117 12.0883 90 27 90H63C77.9117 90 90 77.9117 90 63V27C90 12.0883 77.9117 0 63 0Z" fill="#CEEDFF"/>
<path fill-rule="evenodd" clip-rule="evenodd" d="M37.458 27H52.5438C58.104 27 61.2 30.204 61.2 35.694V54.288C61.2 59.868 58.104 63 52.5438 63H37.458C31.986 63 28.8 59.868 28.8 54.288V35.694C28.8 30.204 31.986 27 37.458 27ZM37.9438 35.3882V35.3702H43.324C44.0998 35.3702 44.7298 36.0002 44.7298 36.7724C44.7298 37.5662 44.0998 38.1962 43.324 38.1962H37.9438C37.168 38.1962 36.5398 37.5662 36.5398 36.7922C36.5398 36.0182 37.168 35.3882 37.9438 35.3882ZM37.9438 46.3322H52.0558C52.8298 46.3322 53.4598 45.7022 53.4598 44.9282C53.4598 44.1542 52.8298 43.5224 52.0558 43.5224H37.9438C37.168 43.5224 36.5398 44.1542 36.5398 44.9282C36.5398 45.7022 37.168 46.3322 37.9438 46.3322ZM37.944 54.558H52.056C52.7742 54.486 53.316 53.8722 53.316 53.154C53.316 52.416 52.7742 51.804 52.056 51.732H37.944C37.404 51.678 36.882 51.93 36.594 52.398C36.306 52.848 36.306 53.442 36.594 53.91C36.882 54.36 37.404 54.63 37.944 54.558Z" fill="#4DBCFE"/>
</g>
</g>
<defs>
<filter id="filter0_d" x="-20" y="-10" width="130" height="130" filterUnits="userSpaceOnUse" color-interpolation-filters="sRGB">
<feFlood flood-opacity="0" result="BackgroundImageFix"/>
<feColorMatrix in="SourceAlpha" type="matrix" values="0 0 0 0 0 0 0 0 0 0 0 0 0 0 0 0 0 0 127 0"/>
<feOffset dy="10"/>
<feGaussianBlur stdDeviation="10"/>
<feColorMatrix type="matrix" values="0 0 0 0 0.770833 0 0 0 0 0.619075 0 0 0 0 0.56849 0 0 0 0.1 0"/>
<feBlend mode="normal" in2="BackgroundImageFix" result="effect1_dropShadow"/>
<feBlend mode="normal" in="SourceGraphic" in2="effect1_dropShadow" result="shape"/>
</filter>
<clipPath id="clip0">
<rect width="90" height="90" fill="white"/>
</clipPath>
</defs>
</svg>
